<?xml version="1.0" standalone="no"?>
<!DOCTYPE svg PUBLIC "-//W3C//DTD SVG 20010904//EN"
 "http://www.w3.org/TR/2001/REC-SVG-20010904/DTD/svg10.dtd">
<svg version="1.0" xmlns="http://www.w3.org/2000/svg"
 width="700.000000pt" height="700.000000pt" viewBox="0 0 700.000000 700.000000"
 preserveAspectRatio="xMidYMid meet">
<metadata>
Created by potrace 1.14, written by Peter Selinger 2001-2017
</metadata>
<g transform="translate(0.000000,700.000000) scale(0.100000,-0.100000)"
fill="#000000" stroke="none">
<path d="M5319 6681 c-186 -47 -325 -227 -321 -415 2 -80 9 -109 45 -186 28
-59 77 -111 521 -557 301 -301 510 -503 541 -522 134 -81 271 -88 410 -22 229
109 309 417 163 629 -51 75 -989 1005 -1039 1031 -110 58 -209 71 -320 42z"/>
<path d="M4410 5736 c-3 -2 -21 -6 -40 -9 -111 -15 -199 -65 -807 -459 -284
-184 -519 -337 -643 -418 -150 -99 -447 -292 -687 -447 -246 -159 -577 -364
-704 -437 l-116 -66 19 -57 c20 -61 22 -73 43 -198 13 -77 14 -406 2 -465 -3
-14 -8 -47 -12 -75 -3 -27 -8 -59 -10 -70 -3 -11 -7 -33 -10 -49 -30 -188
-124 -509 -231 -792 -60 -159 -189 -461 -206 -481 -6 -7 -8 -13 -4 -13 16 0
-285 -576 -437 -838 -40 -67 -76 -131 -82 -140 -5 -10 -37 -62 -70 -115 -33
-54 -67 -109 -75 -123 -8 -13 -39 -61 -68 -107 -59 -92 -208 -239 1203 1188
l620 626 2 59 c4 97 46 160 132 198 101 45 231 -11 274 -118 18 -44 15 -125
-6 -166 -39 -76 -127 -126 -208 -118 -35 4 -44 -4 -520 -481 -692 -694 -1389
-1397 -1389 -1402 0 -2 46 27 102 65 335 224 909 544 1303 727 382 177 838
341 1113 400 114 25 227 45 267 50 28 3 61 8 75 11 14 3 104 7 200 9 211 4
361 -14 490 -60 27 -10 46 -12 48 -6 20 59 496 839 797 1306 17 28 108 169
200 315 234 368 254 400 280 440 84 128 395 630 437 706 28 51 54 117 63 160
3 13 8 36 11 52 11 48 8 215 -5 272 -19 80 -42 150 -52 156 -5 3 -9 12 -9 20
0 8 -16 38 -36 67 -48 70 -683 707 -759 762 -112 80 -244 122 -395 124 -53 1
-98 0 -100 -3z"/>
</g>
</svg>
